HIERARCHY
ROOT Hips
{
	OFFSET -0.001795 -0.223333 0.028219
	CHANNELS 6 Xposition Yposition Zposition Zrotation Yrotation Xrotation 
	JOINT LeftUpLeg
	{
		OFFSET 0.069520 -0.091406 -0.006815
		CHANNELS 3 Zrotation Yrotation Xrotation
		JOINT LeftLeg
		{
			OFFSET 0.034277 -0.375199 -0.004496
			CHANNELS 3 Zrotation Yrotation Xrotation
			JOINT LeftFoot
			{
				OFFSET -0.013596 -0.397961 -0.043693
				CHANNELS 3 Zrotation Yrotation Xrotation
				JOINT LeftToe
				{
					OFFSET 0.026358 -0.055791 0.119288
					CHANNELS 3 Zrotation Yrotation Xrotation
					End Site
					{
						OFFSET 0.000000 0.000000 0.000000
					}
				}
			}
		}
	}
	JOINT RightUpLeg
	{
		OFFSET -0.067670 -0.090522 -0.004320
		CHANNELS 3 Zrotation Yrotation Xrotation
		JOINT RightLeg
		{
			OFFSET -0.038290 -0.382569 -0.008850
			CHANNELS 3 Zrotation Yrotation Xrotation
			JOINT RightFoot
			{
				OFFSET 0.015774 -0.398415 -0.042312
				CHANNELS 3 Zrotation Yrotation Xrotation
				JOINT RightToe
				{
					OFFSET -0.025372 -0.048144 0.123348
					CHANNELS 3 Zrotation Yrotation Xrotation
					End Site
					{
						OFFSET 0.000000 0.000000 0.000000
					}
				}
			}
		}
	}
	JOINT Spine
	{
		OFFSET -0.002533 0.108963 -0.026696
		CHANNELS 3 Zrotation Yrotation Xrotation
		JOINT Spine1
		{
			OFFSET 0.005487 0.135180 0.001092
			CHANNELS 3 Zrotation Yrotation Xrotation
			JOINT Spine2
			{
				OFFSET 0.001457 0.052922 0.025425
				CHANNELS 3 Zrotation Yrotation Xrotation
				JOINT Neck
				{
					OFFSET -0.002778 0.213870 -0.042857
					CHANNELS 3 Zrotation Yrotation Xrotation
					JOINT Head
					{
						OFFSET 0.005152 0.064970 0.051349
						CHANNELS 3 Zrotation Yrotation Xrotation
						End Site
						{
							OFFSET 0.000000 0.000000 0.000000
						}
					}
				}
				JOINT LeftShoulder
				{
					OFFSET 0.078845 0.121749 -0.034090
					CHANNELS 3 Zrotation Yrotation Xrotation
					JOINT LeftArm
					{
						OFFSET 0.090977 0.030469 -0.008868
						CHANNELS 3 Zrotation Yrotation Xrotation
						JOINT LeftForeArm
						{
							OFFSET 0.259612 -0.012772 -0.027456
							CHANNELS 3 Zrotation Yrotation Xrotation
							JOINT LeftHand
							{
								OFFSET 0.249234 0.008986 -0.001171
								CHANNELS 3 Zrotation Yrotation Xrotation
								End Site
								{
									OFFSET 0.000000 0.000000 0.000000
								}
							}
						}
					}
				}
				JOINT RightShoulder
				{
					OFFSET -0.081759 0.118833 -0.038615
					CHANNELS 3 Zrotation Yrotation Xrotation
					JOINT RightArm
					{
						OFFSET -0.096012 0.032551 -0.009143
						CHANNELS 3 Zrotation Yrotation Xrotation
						JOINT RightForeArm
						{
							OFFSET -0.253742 -0.013329 -0.021401
							CHANNELS 3 Zrotation Yrotation Xrotation
							JOINT RightHand
							{
								OFFSET -0.255298 0.007772 -0.005559
								CHANNELS 3 Zrotation Yrotation Xrotation
								End Site
								{
									OFFSET 0.000000 0.000000 0.000000
								}
							}
						}
					}
				}
			}
		}
	}
}
MOTION
Frames: 17
Frame Time: 0.050000
-0.778335 0.934509 -0.825609 -176.094100 -35.497223 172.138122 3.098729 8.986195 -12.474201 66.626347 25.468300 74.683466 -49.455314 -23.135529 29.755202 0.000000 0.000000 0.000000 4.500264 1.018832 -3.393626 10.912710 8.638297 8.062405 -46.907939 2.886320 23.085480 0.000000 0.000000 0.000000 7.159638 0.026657 7.730722 3.379961 7.961851 -3.466177 -4.351638 -0.106769 15.747990 7.493022 0.015273 -20.158600 0.000000 0.000000 0.000000 -31.304260 5.009592 41.181119 -33.004572 -36.272555 -3.611519 36.461378 -80.428079 -24.314562 0.000000 0.000000 0.000000 16.850707 8.856077 -51.977364 32.410557 -54.036147 -13.185607 77.642376 30.568279 16.482234 0.000000 0.000000 0.000000 
-0.801092 0.936928 -0.854919 -176.976420 -35.404325 171.208439 2.551230 9.291655 -13.981434 49.667938 28.477915 64.270431 -34.431365 -20.253071 12.551415 0.000000 0.000000 0.000000 4.415660 2.351799 2.138863 9.695015 7.549185 5.694234 -46.776978 2.035787 22.349941 0.000000 0.000000 0.000000 7.098500 0.057249 8.035183 2.648215 8.401801 -2.728133 -4.168592 1.509755 15.873606 7.565658 -0.588377 -19.421729 0.000000 0.000000 0.000000 -30.825433 4.630607 39.387672 -35.050442 -34.852852 -3.292025 31.055999 -83.009056 -18.870135 0.000000 0.000000 0.000000 17.544727 9.532054 -49.996943 37.045286 -48.953334 -13.721641 75.739514 33.928773 17.841861 0.000000 0.000000 0.000000 
-0.823999 0.937924 -0.882018 -177.172737 -35.483605 170.534121 1.931215 9.676216 -15.499369 29.069332 27.305286 47.853696 -19.584829 -8.788301 1.116025 0.000000 0.000000 0.000000 5.169823 4.027052 6.807858 8.219173 6.408896 3.950729 -44.162386 -0.130436 19.541854 0.000000 0.000000 0.000000 7.356753 0.138461 8.513461 1.596307 8.177331 -3.083154 -3.407261 3.274914 16.113105 7.012880 -1.103117 -19.054678 0.000000 0.000000 0.000000 -30.437130 3.970900 38.545450 -36.505692 -33.469003 -3.258347 14.811773 -85.708252 -3.697414 0.000000 0.000000 0.000000 17.901696 9.144387 -48.625893 39.565937 -46.160917 -14.057306 75.279232 35.637145 18.692316 0.000000 0.000000 0.000000 
-0.846810 0.936325 -0.908244 -176.939008 -37.005343 170.339622 1.367457 10.044376 -17.075082 13.731245 20.166397 31.868771 -9.361382 2.346133 0.024468 0.000000 0.000000 0.000000 6.414667 5.106665 9.914965 7.077202 5.537783 2.689696 -43.703366 -2.185368 19.283477 0.000000 0.000000 0.000000 7.378414 0.051530 7.808039 2.001329 7.839714 -3.096511 -3.534958 3.708252 16.537014 6.427808 -2.068016 -20.116683 0.000000 0.000000 0.000000 -30.240107 3.713729 37.557020 -38.196746 -33.252115 -2.870831 -7.162828 -87.151311 18.549868 0.000000 0.000000 0.000000 17.532258 9.098486 -46.832426 43.621094 -43.596660 -15.405160 75.748010 37.829789 19.436484 0.000000 0.000000 0.000000 
-0.869754 0.931981 -0.934127 -176.741642 -37.369214 169.848355 0.986675 10.001027 -17.647964 4.993234 12.195273 18.822018 -0.511558 10.225699 5.392169 0.000000 0.000000 0.000000 7.284124 6.608146 12.983643 7.169332 5.295580 1.865708 -43.296544 -4.396677 18.361279 0.000000 0.000000 0.000000 7.442882 0.108838 8.254558 0.984191 7.622980 -3.290879 -2.545249 3.821955 16.164027 5.969350 -2.343566 -20.496275 0.000000 0.000000 0.000000 -30.953821 3.997547 37.462295 -37.438220 -33.321064 -3.335752 -21.590768 -88.466226 33.286922 0.000000 0.000000 0.000000 17.029229 7.845287 -45.339250 44.416052 -42.476077 -16.044691 80.192624 37.803923 21.030696 0.000000 0.000000 0.000000 
-0.893452 0.925136 -0.960675 -176.393577 -38.594211 169.768112 1.159048 10.179545 -18.064336 1.539592 5.632513 8.164858 4.097209 12.228197 11.135202 0.000000 0.000000 0.000000 8.141173 7.786051 15.439701 7.303537 5.065287 1.094258 -45.400416 -6.342909 19.949210 0.000000 0.000000 0.000000 6.950390 0.013600 7.850976 1.449734 6.739731 -4.152215 -2.659932 3.612631 16.986184 4.621921 -2.740702 -21.218870 0.000000 0.000000 0.000000 -31.955042 5.096632 37.494927 -37.500771 -33.745468 -3.827019 -61.277556 -89.070435 73.707455 0.000000 0.000000 0.000000 17.367268 8.175983 -45.863654 43.989518 -42.987257 -15.763393 84.129151 36.446474 22.006088 0.000000 0.000000 0.000000 
-0.918817 0.916022 -0.987688 -175.670112 -39.456028 169.722285 1.567555 10.858912 -18.708574 0.502878 2.448080 0.448663 7.730887 14.313716 13.544912 0.000000 0.000000 0.000000 8.940465 8.275788 16.770494 7.705792 4.834782 2.355221 -46.410937 -9.200074 17.419547 0.000000 0.000000 0.000000 6.665974 -0.076944 7.152998 0.895107 6.304326 -4.536154 -1.709424 2.981810 17.224593 3.575201 -2.648257 -21.325983 0.000000 0.000000 0.000000 -32.937366 7.160377 36.596170 -37.285122 -34.036336 -4.219394 -153.417443 -87.512770 167.932475 0.000000 0.000000 0.000000 16.858838 8.212960 -45.017943 44.544572 -42.567984 -16.190356 88.002845 35.174433 22.115162 0.000000 0.000000 0.000000 
-0.946996 0.906764 -1.015165 -175.055491 -39.787588 170.463406 2.101855 12.054117 -19.578794 -0.828422 1.730744 -4.616992 10.329247 16.776361 13.430687 0.000000 0.000000 0.000000 9.703767 8.702950 17.920356 7.915891 4.617391 3.973309 -48.779578 -10.849879 17.579295 0.000000 0.000000 0.000000 5.684044 -0.236418 6.243300 0.921045 5.825814 -5.437792 -0.830925 2.551407 16.793104 1.868603 -2.122916 -20.484907 0.000000 0.000000 0.000000 -34.984575 8.184790 37.850327 -35.367720 -34.226839 -5.518623 172.284648 -86.625220 -157.014035 0.000000 0.000000 0.000000 16.988684 8.776244 -44.629241 41.629028 -43.159267 -14.961046 92.081496 32.508777 21.621469 0.000000 0.000000 0.000000 
-0.978902 0.899369 -1.042694 -175.713803 -40.805526 170.498909 2.241130 11.805002 -19.368212 -1.543727 1.878990 -5.466110 12.824659 18.616506 14.928496 0.000000 0.000000 0.000000 9.683908 10.375778 20.475094 8.553610 4.370059 5.145586 -51.816189 -12.396562 20.320717 0.000000 0.000000 0.000000 4.540259 -0.240029 6.762364 0.417133 5.379078 -5.767022 -0.771858 2.356641 16.977602 1.078589 -1.720863 -19.128130 0.000000 0.000000 0.000000 -35.880197 8.810052 37.341913 -35.455404 -34.908198 -5.689030 156.594776 -87.108633 -140.595238 0.000000 0.000000 0.000000 17.840870 8.658440 -44.644097 41.298729 -42.739139 -14.397906 95.312846 31.898531 23.412693 0.000000 0.000000 0.000000 
-1.015241 0.893174 -1.069400 -176.843745 -41.761922 171.911402 1.167269 11.836975 -20.770627 -1.881719 2.598558 -2.062647 14.482196 17.352732 18.155336 0.000000 0.000000 0.000000 9.373346 11.758968 22.529658 8.268700 3.907222 4.921324 -50.012972 -12.308227 21.679392 0.000000 0.000000 0.000000 2.793522 -0.281562 5.866118 -0.454545 4.731742 -6.584388 -0.663464 2.247517 17.664915 0.227076 -1.691904 -18.967645 0.000000 0.000000 0.000000 -35.528959 9.742814 35.711172 -36.920771 -33.363564 -5.380813 166.557979 -85.710032 -148.723451 0.000000 0.000000 0.000000 18.602426 11.141353 -44.422689 39.821239 -43.811756 -13.409685 99.227412 32.352958 26.421782 0.000000 0.000000 0.000000 
-1.054194 0.892629 -1.092961 -178.062524 -42.298440 173.264592 0.215723 11.293662 -21.353400 -1.772316 4.199828 3.026349 14.875153 15.287897 20.975468 0.000000 0.000000 0.000000 7.995870 13.246096 23.842585 9.937292 4.134769 6.296587 -51.353934 -12.452874 25.637998 0.000000 0.000000 0.000000 0.785418 -0.145616 5.236660 -1.568285 3.877462 -7.712860 1.757755 4.741522 19.764694 -1.188413 -2.567600 -20.671035 0.000000 0.000000 0.000000 -34.882291 7.188009 36.514995 -39.314618 -32.481308 -5.144527 150.564824 -84.984617 -130.721815 0.000000 0.000000 0.000000 18.701254 10.960007 -42.436585 40.725974 -40.862799 -12.959371 99.498970 34.930810 28.234877 0.000000 0.000000 0.000000 
-1.092656 0.896204 -1.111686 -179.296189 -41.850396 175.828713 -1.349580 10.915555 -22.219901 -0.239363 5.383957 7.059430 12.753828 14.868092 17.511339 0.000000 0.000000 0.000000 2.163568 11.358806 17.856711 14.315010 6.307752 14.062244 -51.007272 -11.523738 26.329220 0.000000 0.000000 0.000000 0.127359 -0.123716 3.669921 -2.473500 4.962513 -5.969259 0.630980 4.568765 17.294833 -0.731499 -1.838607 -17.600471 0.000000 0.000000 0.000000 -35.601575 9.891147 34.071036 -40.219910 -31.299321 -5.604856 148.594955 -84.077922 -125.098780 0.000000 0.000000 0.000000 18.761586 12.813614 -40.821969 39.481910 -40.249904 -11.871841 98.585291 37.100769 29.088454 0.000000 0.000000 0.000000 
-1.128107 0.901475 -1.126389 -179.497030 -43.690422 176.907910 -1.698376 10.046570 -21.981351 -1.322070 7.497085 9.716083 10.307021 15.333990 12.338907 0.000000 0.000000 0.000000 -0.757298 9.810067 13.965675 18.203102 8.149567 19.602911 -51.136619 -11.214038 33.356880 0.000000 0.000000 0.000000 -0.302287 -0.032866 4.653602 -1.810220 4.000485 -7.047503 0.260159 6.929089 17.324207 -1.085274 -3.221291 -19.241480 0.000000 0.000000 0.000000 -35.019064 7.903807 33.098170 -41.904798 -30.170347 -5.124966 -173.592218 -83.921292 -166.332818 0.000000 0.000000 0.000000 19.677387 11.223296 -39.773113 39.260579 -37.764468 -11.019782 94.721051 38.980194 29.237680 0.000000 0.000000 0.000000 
-1.160402 0.905815 -1.138863 -178.773233 -45.251224 176.849147 -1.495928 8.432801 -19.847444 -2.633229 7.566881 8.336811 10.898895 19.344072 9.283531 0.000000 0.000000 0.000000 -1.237778 8.086329 11.380099 21.907227 10.205688 26.030251 -50.208126 -11.771169 40.466465 0.000000 0.000000 0.000000 0.175470 -0.053445 5.453045 -2.722113 3.970336 -7.073514 1.075298 6.983796 18.105807 0.458647 -4.423552 -22.160511 0.000000 0.000000 0.000000 -35.727906 7.115168 33.919015 -40.684268 -31.027489 -5.517104 -170.357375 -80.775324 -169.257568 0.000000 0.000000 0.000000 20.886607 12.078245 -38.784625 36.828912 -35.443057 -8.699010 95.752641 40.995346 33.023836 0.000000 0.000000 0.000000 
-1.191505 0.910036 -1.150508 -178.923228 -45.845737 176.650487 -1.801297 6.631185 -17.293942 -2.614987 8.203654 8.838869 10.170871 20.526479 7.763050 0.000000 0.000000 0.000000 -3.953275 7.317213 7.598465 30.705849 13.253931 33.348703 -52.124117 -12.698612 50.440912 0.000000 0.000000 0.000000 0.001576 -0.051253 5.216947 -1.933415 4.675336 -5.384823 0.185487 6.017232 17.719563 -0.738956 -4.371530 -22.051711 0.000000 0.000000 0.000000 -36.033088 7.837613 33.452120 -40.133995 -33.017881 -5.232898 -171.135591 -80.068868 -166.451008 0.000000 0.000000 0.000000 20.991352 13.280534 -38.221910 36.623556 -33.942662 -7.817197 94.843227 41.847357 32.729895 0.000000 0.000000 0.000000 
-1.222057 0.914170 -1.161583 -179.077550 -47.468577 176.113666 -2.047351 5.010097 -14.802460 -2.038986 8.352047 9.565749 10.668763 21.892836 7.937834 0.000000 0.000000 0.000000 -7.025312 7.049848 3.946882 40.335093 15.030904 40.065273 -51.104157 -17.459140 56.245722 0.000000 0.000000 0.000000 -0.982037 0.191616 6.301918 -0.903415 4.583745 -4.603143 0.037723 5.819690 17.107888 -0.598070 -4.590958 -21.624803 0.000000 0.000000 0.000000 -34.985015 5.824397 32.573972 -41.508839 -32.492409 -4.367176 -167.958999 -78.612363 -169.480141 0.000000 0.000000 0.000000 19.616606 12.433577 -34.574078 40.111177 -31.450023 -9.202715 92.227431 43.728322 30.489409 0.000000 0.000000 0.000000 
-1.250934 0.915960 -1.171947 -178.926042 -49.486350 174.982092 -2.308187 3.530984 -11.904249 -2.263542 8.978561 10.126623 9.075392 22.460945 5.565351 0.000000 0.000000 0.000000 -8.657695 6.377865 0.301361 49.941292 15.779737 46.590396 -52.470240 -21.343523 63.349724 0.000000 0.000000 0.000000 -0.844905 0.401757 8.061171 -1.092199 4.705303 -3.826051 -0.085330 3.412642 15.959910 -0.321401 -4.550647 -21.754527 0.000000 0.000000 0.000000 -34.529061 5.484114 31.645338 -40.377738 -33.697944 -3.626177 -168.236011 -78.632702 -169.396461 0.000000 0.000000 0.000000 19.658583 12.434764 -33.159349 40.990722 -31.190082 -9.614935 90.556934 43.058450 28.491808 0.000000 0.000000 0.000000 
